# xmcd CD database file
# Copyright (C) 1993-1996 Ti Kan
#
# Track frame offsets:
# 150
# 10902
# 26602
# 37512
# 50250
# 63725
# 79462
# 90730
# 109190
# 121752
#
# Disc length: 1788 seconds
#
# Revision: 0
# Processed by: cddbd v1.4b41PL1 Copyright (c) Steve Scherf et al.
# Submitted via: inCDius 1.1b5
#
DISCID=7506fa0a
DTITLE=Ronnie McDowell - The Best Of Ronnie McDowell
DYEAR=1900
DGENRE=
TTITLE0=It's Only Make Believe
TTITLE1=I Love You, I Love You, I Love You
TTITLE2=Sheet Music
TTITLE3=I'm Still Missing You
TTITLE4=All Tied Up
TTITLE5=Since I Don't Have You
TTITLE6=She's A Little Past Forty
TTITLE7=The King Is Gone
TTITLE8=American Music
TTITLE9=Watchin' Girls Go By
EXTD=
EXTT0=
EXTT1=
EXTT2=
EXTT3=
EXTT4=
EXTT5=
EXTT6=
EXTT7=
EXTT8=
EXTT9=
PLAYORDER=
